<?xml version="1.0" standalone="no"?>
<!DOCTYPE svg PUBLIC "-//W3C//DTD SVG 20010904//EN"
 "http://www.w3.org/TR/2001/REC-SVG-20010904/DTD/svg10.dtd">
<svg version="1.0" xmlns="http://www.w3.org/2000/svg"
 width="1150.000000pt" height="1280.000000pt" viewBox="0 0 1150.000000 1280.000000"
 preserveAspectRatio="xMidYMid meet">
<metadata>
Created by potrace 1.15, written by Peter Selinger 2001-2017
</metadata>
<g transform="translate(0.000000,1280.000000) scale(0.100000,-0.100000)"
fill="#000000" stroke="none">
<path d="M10614 12768 c-27 -18 -71 -62 -99 -97 -27 -36 -80 -97 -117 -137
-36 -40 -117 -149 -179 -241 -184 -275 -189 -280 -316 -289 -86 -6 -223 -27
-322 -50 -299 -69 -627 -392 -871 -857 -55 -104 -67 -120 -103 -139 -66 -33
-217 -193 -414 -438 -161 -201 -227 -273 -317 -347 -30 -24 -34 -63 -11 -103
8 -14 14 -27 15 -30 0 -3 -37 0 -82 6 -96 15 -292 18 -284 5 3 -4 24 -11 47
-15 48 -8 127 -46 152 -74 17 -19 17 -19 -20 -26 -21 -3 -70 -6 -109 -6 -78 0
-162 -13 -242 -38 -52 -16 -52 -16 -26 -27 24 -9 15 -12 -73 -23 -105 -13
-269 -54 -286 -71 -6 -6 12 -12 49 -16 90 -10 166 -26 194 -41 l25 -13 -25 -1
c-121 -3 -362 -48 -376 -71 -3 -5 21 -9 54 -9 74 0 142 -20 189 -56 42 -32 38
-36 -62 -54 -38 -7 -88 -19 -110 -27 -38 -13 -135 -73 -135 -83 0 -3 22 -3 49
-2 34 3 64 -3 100 -18 55 -24 66 -40 27 -40 -90 0 -394 -97 -418 -134 -14 -21
-8 -24 37 -18 51 5 175 -17 153 -28 -7 -4 -60 -13 -118 -19 -58 -7 -130 -19
-161 -26 -70 -18 -149 -53 -149 -65 0 -6 33 -10 74 -10 41 0 87 -5 103 -12
l28 -12 -25 -3 c-252 -37 -361 -65 -603 -154 -123 -46 -171 -59 -215 -59 -105
-1 -292 -38 -292 -59 0 -4 10 -12 21 -17 18 -8 8 -13 -57 -29 -73 -18 -76 -20
-39 -23 58 -4 144 -22 150 -31 2 -5 -15 -6 -39 -4 -50 6 -135 -16 -186 -49
l-35 -22 54 -7 c85 -11 83 -26 -6 -32 -43 -2 -103 -11 -133 -18 l-55 -13 73
-11 c74 -12 96 -21 71 -29 -507 -174 -1152 -298 -1874 -361 -472 -40 -595 -46
-683 -29 -74 14 -88 14 -135 0 -76 -23 -88 -32 -55 -45 14 -5 29 -15 34 -22 5
-9 2 -10 -12 -5 -58 23 -254 14 -254 -12 0 -4 15 -16 33 -26 32 -20 32 -20 7
-24 -88 -13 -232 -46 -307 -72 -95 -32 -232 -91 -233 -101 0 -3 21 -10 47 -15
l46 -9 -194 -84 c-270 -117 -493 -231 -628 -322 -115 -76 -261 -202 -302 -260
l-22 -31 49 7 49 7 -45 -28 c-84 -52 -165 -118 -258 -212 -50 -52 -92 -98 -92
-103 0 -5 30 3 67 16 l68 26 -55 -48 c-152 -130 -253 -268 -295 -403 -7 -22
-3 -20 37 17 48 44 103 76 119 71 5 -2 -23 -46 -62 -98 -71 -94 -129 -198
-129 -233 0 -16 2 -16 30 -2 41 21 44 19 22 -12 -58 -83 -97 -202 -90 -277 l3
-40 31 50 c28 46 77 85 90 72 3 -4 -15 -42 -39 -85 -90 -156 -152 -322 -129
-345 9 -9 17 -5 36 15 22 24 128 97 140 97 3 0 -13 -39 -35 -87 -57 -124 -99
-249 -99 -294 0 -21 3 -39 8 -39 4 0 20 16 35 36 28 35 102 94 118 94 10 0 -1
-30 -85 -242 -112 -281 -141 -441 -107 -596 l14 -64 33 36 c30 32 81 62 90 53
2 -2 -12 -35 -31 -73 -35 -67 -86 -276 -72 -290 3 -4 24 8 47 26 44 35 47 32
25 -30 -18 -50 -18 -53 -5 -45 14 9 13 5 -19 -61 -33 -68 -55 -155 -49 -198
l3 -30 29 42 c16 23 31 41 33 39 2 -2 -4 -24 -13 -48 -8 -24 -18 -78 -20 -119
l-6 -75 22 33 c13 18 24 32 25 30 2 -2 -6 -37 -16 -78 -25 -94 -36 -234 -21
-244 7 -4 22 13 39 44 39 72 81 130 94 130 7 0 8 -7 4 -17 -23 -53 -79 -264
-109 -415 -81 -395 -67 -499 42 -328 50 78 88 106 78 58 -3 -13 -13 -90 -22
-171 -25 -221 -9 -497 28 -497 4 0 8 36 8 81 0 85 24 166 41 137 20 -36 51
-179 79 -363 46 -302 79 -411 157 -517 34 -48 125 -128 144 -128 4 0 13 18 19
40 10 38 63 110 80 110 5 0 11 -26 15 -57 17 -164 43 -271 71 -294 21 -18 30
-1 45 84 7 46 14 66 21 59 16 -16 24 -72 18 -128 -3 -29 -2 -50 2 -48 14 9 50
86 68 144 l17 55 11 -40 c7 -22 12 -73 12 -112 0 -40 4 -73 9 -73 16 0 74 75
86 111 l12 33 31 -43 c40 -55 60 -120 68 -222 4 -44 10 -79 14 -79 20 0 78
186 93 300 l3 25 14 -30 c7 -16 13 -60 13 -97 0 -38 3 -68 6 -68 32 0 111 133
111 187 0 73 90 -188 125 -363 14 -67 25 -145 25 -173 0 -57 11 -85 44 -113
12 -10 119 -77 239 -150 120 -73 252 -159 295 -191 114 -86 177 -115 331 -149
164 -37 311 -43 377 -16 39 16 48 16 130 1 100 -18 172 -10 223 27 37 26 59
25 88 -1 l22 -22 11 27 c19 52 11 92 -40 195 -64 127 -127 198 -212 237 -59
27 -70 29 -188 28 -90 0 -137 -5 -167 -16 -42 -17 -42 -17 -85 14 -69 49 -239
227 -291 306 -148 222 -204 441 -158 619 76 295 236 590 432 796 106 113 183
171 308 232 182 90 310 216 507 500 81 116 89 125 102 108 9 -12 12 -34 9 -70
-3 -29 -2 -53 2 -53 14 0 64 122 69 167 4 40 6 42 22 28 9 -8 27 -38 40 -65
13 -28 27 -50 31 -50 4 0 17 19 28 43 25 51 27 110 6 187 -8 30 -13 56 -11 57
9 9 57 -63 73 -107 10 -28 21 -50 24 -50 11 0 29 52 43 130 8 41 18 83 22 94
7 17 8 17 19 -5 12 -22 13 -22 38 27 66 131 116 401 124 674 6 202 -5 308 -37
376 -11 22 -20 43 -20 46 0 9 78 38 101 38 35 0 84 -60 114 -140 15 -41 31
-79 36 -84 4 -4 11 14 15 40 13 88 18 94 42 47 12 -22 38 -58 58 -79 34 -36
37 -38 45 -19 4 11 8 35 8 53 1 39 14 41 30 6 14 -31 61 -94 70 -94 3 0 5 33
3 73 -2 40 2 93 8 117 l13 45 24 -70 c30 -88 95 -219 108 -217 6 0 17 34 26
74 9 40 20 81 24 91 7 17 8 17 28 0 24 -22 64 -109 101 -221 15 -45 30 -82 32
-82 11 0 64 128 64 155 l1 30 19 -23 c25 -30 40 -84 40 -144 0 -35 4 -48 14
-48 23 0 74 48 103 97 l26 45 38 -73 c22 -41 52 -86 67 -102 l28 -28 -4 59
c-2 32 1 85 8 118 l12 59 25 -55 c36 -82 72 -115 74 -67 0 12 4 31 8 41 6 16
11 12 28 -26 12 -24 25 -62 29 -83 l7 -39 32 36 c18 20 44 64 57 99 l23 64 6
-98 c3 -53 11 -103 17 -109 16 -16 49 62 58 137 7 53 8 56 22 39 25 -33 62
-121 71 -166 l7 -43 32 50 c18 27 40 74 48 105 9 30 19 62 21 70 3 8 16 -14
30 -50 19 -49 24 -76 19 -112 l-5 -48 25 17 c34 22 76 85 120 180 l37 78 12
-40 c7 -22 19 -79 25 -128 9 -60 17 -87 26 -87 26 0 101 122 138 225 6 16 12
9 31 -39 13 -32 26 -61 30 -64 11 -11 32 25 56 94 l23 64 29 -36 30 -35 26 52
c30 61 51 74 51 32 0 -38 26 -143 37 -154 6 -6 18 12 32 51 12 34 30 78 38 98
l16 37 23 -91 c12 -50 30 -108 39 -129 l16 -39 34 79 c43 97 50 106 71 77 23
-33 37 -27 62 31 12 28 31 63 42 77 l18 24 -10 -44 c-6 -25 -19 -64 -30 -87
-21 -48 -54 -190 -46 -199 4 -3 16 0 28 6 35 18 35 4 1 -30 -26 -26 -54 -87
-45 -98 1 -2 14 4 29 14 24 16 27 16 43 1 15 -16 14 -20 -21 -55 -45 -46 -48
-66 -9 -57 19 4 33 1 41 -8 9 -12 5 -19 -26 -37 l-37 -22 40 -18 c21 -9 45
-28 53 -41 12 -21 11 -25 -15 -49 l-30 -26 31 -14 c34 -17 44 -50 20 -70 -19
-16 -20 -30 -1 -30 26 0 36 -27 56 -146 49 -285 109 -550 190 -834 56 -201
114 -459 164 -732 24 -134 54 -267 65 -296 25 -62 75 -143 121 -196 84 -96
285 -142 439 -102 41 11 59 12 80 3 41 -17 255 -13 330 7 76 21 129 46 154 74
14 16 27 19 53 15 19 -3 34 -3 34 1 0 15 -180 275 -224 323 -30 33 -71 64
-112 84 -56 28 -71 31 -122 26 -32 -2 -77 -14 -100 -26 -22 -11 -43 -18 -45
-13 -8 12 -95 324 -106 380 -31 153 -22 369 29 677 l28 170 1 -114 1 -115 20
22 c34 36 57 25 36 -17 -15 -29 -39 -132 -32 -138 2 -3 23 9 47 26 60 44 72
41 48 -13 -10 -24 -22 -66 -25 -93 l-7 -48 25 23 c21 19 48 30 48 18 0 -2 -6
-19 -14 -37 -14 -33 -33 -169 -24 -169 3 0 24 18 47 40 23 22 51 40 61 40 19
0 19 -2 -5 -56 -32 -71 -31 -80 1 -55 15 12 37 21 49 21 21 0 23 -4 18 -42 -2
-24 -6 -51 -8 -60 -4 -21 -1 -22 27 -7 15 8 31 8 58 0 32 -9 39 -18 59 -68 71
-175 250 -487 403 -698 46 -63 103 -148 128 -187 76 -121 159 -156 378 -159
116 -2 132 0 192 24 36 15 88 31 115 36 67 13 96 25 159 65 l54 34 23 -24 c35
-38 42 -30 36 39 -12 131 -82 246 -204 339 -100 75 -155 92 -304 93 l-125 0
-39 90 c-102 240 -192 487 -229 632 -51 195 -72 581 -56 1008 16 426 47 852
77 1060 13 89 15 163 10 392 -6 268 -5 283 12 283 10 0 67 -9 126 -20 60 -10
111 -18 113 -16 1 2 -20 24 -48 49 l-52 44 44 7 c43 7 228 -7 285 -20 l28 -7
-33 35 c-45 48 -126 87 -206 101 -36 6 -66 14 -66 17 0 16 157 80 198 80 12 0
22 4 22 9 0 11 -83 51 -107 52 -10 0 30 13 89 29 59 16 122 37 140 46 l33 17
-25 10 c-14 6 -45 19 -70 31 l-45 20 40 7 c22 4 71 12 109 18 120 21 184 61
96 61 -43 0 -88 18 -109 44 -12 14 -9 16 21 16 39 0 91 16 127 39 l23 15 -26
19 c-25 18 -56 65 -56 85 0 5 27 13 61 16 96 11 96 12 36 75 -30 31 -62 71
-71 89 l-17 33 28 -7 c15 -4 38 -11 51 -15 41 -15 42 -10 11 52 -57 115 -72
185 -49 229 12 23 61 40 117 40 37 0 44 3 41 17 -2 10 -17 26 -34 38 -74 48
-73 46 -14 42 30 -3 63 -8 73 -12 18 -7 17 -5 -2 34 -12 23 -26 53 -31 66 l-9
24 41 -15 c22 -8 44 -14 49 -14 5 0 -5 37 -21 82 -17 45 -30 84 -30 87 0 3 16
-10 35 -29 l35 -34 0 50 c0 29 -11 73 -25 108 l-24 59 37 -35 c58 -55 107 -88
130 -88 27 0 27 1 3 48 -20 40 -55 171 -48 178 2 3 23 -26 45 -64 41 -68 68
-100 78 -90 3 3 0 36 -7 73 -9 52 -9 123 1 311 7 134 16 244 20 244 4 0 12
-11 18 -25 20 -43 28 -27 24 48 -4 78 6 82 29 12 l13 -40 7 77 c6 70 11 84 57
156 60 93 117 210 134 272 l12 45 5 -35 c4 -24 9 -31 15 -22 14 23 36 114 37
157 1 34 2 36 8 15 7 -24 8 -24 18 -5 40 75 75 274 79 455 1 80 3 149 3 153 1
5 10 5 21 2 23 -7 24 -6 10 31 -10 25 -9 26 12 20 13 -4 35 -9 49 -12 l27 -6
-28 58 c-16 33 -31 72 -34 87 l-7 28 41 -27 c22 -15 43 -25 45 -22 3 3 -6 31
-21 62 -28 62 -27 74 4 57 22 -12 65 -14 98 -5 21 6 21 7 -13 62 -35 60 -60
128 -50 138 3 4 27 -1 53 -10 26 -9 49 -14 51 -13 2 2 -12 20 -31 40 -34 37
-74 122 -62 134 3 3 32 -1 63 -10 32 -8 59 -15 60 -13 1 1 -10 18 -26 37 -39
47 -61 127 -61 219 0 42 -12 155 -26 251 -23 153 -25 196 -21 359 8 337 61
517 286 979 177 363 212 447 218 521 8 83 -28 205 -80 274 -14 19 -18 19 -71
6 -51 -12 -60 -12 -86 3 -38 23 -64 22 -55 0 4 -10 9 -34 12 -54 5 -31 1 -39
-25 -57 -27 -20 -156 -82 -169 -82 -7 0 4 142 22 278 36 266 2 391 -158 587
-130 160 -182 183 -273 123z"/>
</g>
</svg>
